<?xml version="1.0" encoding="utf-8" standalone="no"?>
<!DOCTYPE svg PUBLIC "-//W3C//DTD SVG 1.1//EN"
  "http://www.w3.org/Graphics/SVG/1.1/DTD/svg11.dtd">
<svg xmlns:xlink="http://www.w3.org/1999/xlink" width="699.130425pt" height="412.810125pt" viewBox="0 0 699.130425 412.810125" xmlns="http://www.w3.org/2000/svg" version="1.1">
 <metadata>
  <rdf:RDF xmlns:dc="http://purl.org/dc/elements/1.1/" xmlns:cc="http://creativecommons.org/ns#" xmlns:rdf="http://www.w3.org/1999/02/22-rdf-syntax-ns#">
   <cc:Work>
    <dc:type rdf:resource="http://purl.org/dc/dcmitype/StillImage"/>
    <dc:date>2026-04-08T12:07:00.828699</dc:date>
    <dc:format>image/svg+xml</dc:format>
    <dc:creator>
     <cc:Agent>
      <dc:title>Matplotlib v3.10.8, https://matplotlib.org/</dc:title>
     </cc:Agent>
    </dc:creator>
   </cc:Work>
  </rdf:RDF>
 </metadata>
 <defs>
  <style type="text/css">*{stroke-linejoin: round; stroke-linecap: butt}</style>
 </defs>
 <g id="figure_1">
  <g id="patch_1">
   <path d="M 0 412.810125 
L 699.130425 412.810125 
L 699.130425 0 
L 0 0 
z
" style="fill: #ffffff"/>
  </g>
  <g id="axes_1">
   <g id="patch_2">
    <path d="M 63.031875 366.5985 
L 535.537875 366.5985 
L 535.537875 25.3575 
L 63.031875 25.3575 
z
" style="fill: #ffffff"/>
   </g>
   <g id="matplotlib.axis_1">
    <g id="xtick_1">
     <g id="line2d_1">
      <path d="M 84.50942 366.5985 
L 84.50942 25.3575 
" clip-path="url(#pb903784519)" style="fill: none; stroke-dasharray: 2.96,1.28; stroke-dashoffset: 0; stroke: #cccccc; stroke-opacity: 0.7; stroke-width: 0.8"/>
     </g>
     <g id="text_1">
      <!-- 0.00 -->
      <g style="fill: #262626" transform="translate(69.814108 384.928437) scale(0.132 -0.132)">
       <defs>
        <path id="DejaVuSerif-30" d="M 2034 219 
Q 2513 219 2750 744 
Q 2988 1269 2988 2328 
Q 2988 3391 2750 3916 
Q 2513 4441 2034 4441 
Q 1556 4441 1318 3916 
Q 1081 3391 1081 2328 
Q 1081 1269 1318 744 
Q 1556 219 2034 219 
z
M 2034 -91 
Q 1275 -91 848 546 
Q 422 1184 422 2328 
Q 422 3475 848 4112 
Q 1275 4750 2034 4750 
Q 2797 4750 3222 4112 
Q 3647 3475 3647 2328 
Q 3647 1184 3222 546 
Q 2797 -91 2034 -91 
z
" transform="scale(0.015625)"/>
        <path id="DejaVuSerif-2e" d="M 603 325 
Q 603 500 722 622 
Q 841 744 1019 744 
Q 1191 744 1312 622 
Q 1434 500 1434 325 
Q 1434 153 1312 31 
Q 1191 -91 1019 -91 
Q 841 -91 722 29 
Q 603 150 603 325 
z
" transform="scale(0.015625)"/>
       </defs>
       <use xlink:href="#DejaVuSerif-30"/>
       <use xlink:href="#DejaVuSerif-2e" transform="translate(63.623047 0)"/>
       <use xlink:href="#DejaVuSerif-30" transform="translate(95.410156 0)"/>
       <use xlink:href="#DejaVuSerif-30" transform="translate(159.033203 0)"/>
      </g>
     </g>
    </g>
    <g id="xtick_2">
     <g id="line2d_2">
      <path d="M 191.897148 366.5985 
L 191.897148 25.3575 
" clip-path="url(#pb903784519)" style="fill: none; stroke-dasharray: 2.96,1.28; stroke-dashoffset: 0; stroke: #cccccc; stroke-opacity: 0.7; stroke-width: 0.8"/>
     </g>
     <g id="text_2">
      <!-- 0.25 -->
      <g style="fill: #262626" transform="translate(177.201835 384.928437) scale(0.132 -0.132)">
       <defs>
        <path id="DejaVuSerif-32" d="M 819 3553 
L 469 3553 
L 469 4384 
Q 803 4563 1142 4656 
Q 1481 4750 1806 4750 
Q 2534 4750 2956 4397 
Q 3378 4044 3378 3438 
Q 3378 2753 2422 1800 
Q 2347 1728 2309 1691 
L 1131 513 
L 3078 513 
L 3078 1088 
L 3444 1088 
L 3444 0 
L 434 0 
L 434 341 
L 1850 1753 
Q 2319 2222 2519 2614 
Q 2719 3006 2719 3438 
Q 2719 3909 2473 4175 
Q 2228 4441 1797 4441 
Q 1350 4441 1106 4219 
Q 863 3997 819 3553 
z
" transform="scale(0.015625)"/>
        <path id="DejaVuSerif-35" d="M 3219 4666 
L 3219 4153 
L 1081 4153 
L 1081 2816 
Q 1244 2928 1461 2984 
Q 1678 3041 1947 3041 
Q 2703 3041 3140 2622 
Q 3578 2203 3578 1478 
Q 3578 738 3136 323 
Q 2694 -91 1894 -91 
Q 1572 -91 1234 -12 
Q 897 66 544 225 
L 544 1131 
L 897 1131 
Q 925 688 1179 453 
Q 1434 219 1894 219 
Q 2388 219 2653 544 
Q 2919 869 2919 1478 
Q 2919 2084 2655 2407 
Q 2391 2731 1894 2731 
Q 1613 2731 1398 2631 
Q 1184 2531 1019 2322 
L 750 2322 
L 750 4666 
L 3219 4666 
z
" transform="scale(0.015625)"/>
       </defs>
       <use xlink:href="#DejaVuSerif-30"/>
       <use xlink:href="#DejaVuSerif-2e" transform="translate(63.623047 0)"/>
       <use xlink:href="#DejaVuSerif-32" transform="translate(95.410156 0)"/>
       <use xlink:href="#DejaVuSerif-35" transform="translate(159.033203 0)"/>
      </g>
     </g>
    </g>
    <g id="xtick_3">
     <g id="line2d_3">
      <path d="M 299.284875 366.5985 
L 299.284875 25.3575 
" clip-path="url(#pb903784519)" style="fill: none; stroke-dasharray: 2.96,1.28; stroke-dashoffset: 0; stroke: #cccccc; stroke-opacity: 0.7; stroke-width: 0.8"/>
     </g>
     <g id="text_3">
      <!-- 0.50 -->
      <g style="fill: #262626" transform="translate(284.589562 384.928437) scale(0.132 -0.132)">
       <use xlink:href="#DejaVuSerif-30"/>
       <use xlink:href="#DejaVuSerif-2e" transform="translate(63.623047 0)"/>
       <use xlink:href="#DejaVuSerif-35" transform="translate(95.410156 0)"/>
       <use xlink:href="#DejaVuSerif-30" transform="translate(159.033203 0)"/>
      </g>
     </g>
    </g>
    <g id="xtick_4">
     <g id="line2d_4">
      <path d="M 406.672602 366.5985 
L 406.672602 25.3575 
" clip-path="url(#pb903784519)" style="fill: none; stroke-dasharray: 2.96,1.28; stroke-dashoffset: 0; stroke: #cccccc; stroke-opacity: 0.7; stroke-width: 0.8"/>
     </g>
     <g id="text_4">
      <!-- 0.75 -->
      <g style="fill: #262626" transform="translate(391.97729 384.928437) scale(0.132 -0.132)">
       <defs>
        <path id="DejaVuSerif-37" d="M 3609 4347 
L 1784 0 
L 1319 0 
L 3059 4153 
L 903 4153 
L 903 3578 
L 538 3578 
L 538 4666 
L 3609 4666 
L 3609 4347 
z
" transform="scale(0.015625)"/>
       </defs>
       <use xlink:href="#DejaVuSerif-30"/>
       <use xlink:href="#DejaVuSerif-2e" transform="translate(63.623047 0)"/>
       <use xlink:href="#DejaVuSerif-37" transform="translate(95.410156 0)"/>
       <use xlink:href="#DejaVuSerif-35" transform="translate(159.033203 0)"/>
      </g>
     </g>
    </g>
    <g id="xtick_5">
     <g id="line2d_5">
      <path d="M 514.06033 366.5985 
L 514.06033 25.3575 
" clip-path="url(#pb903784519)" style="fill: none; stroke-dasharray: 2.96,1.28; stroke-dashoffset: 0; stroke: #cccccc; stroke-opacity: 0.7; stroke-width: 0.8"/>
     </g>
     <g id="text_5">
      <!-- 1.00 -->
      <g style="fill: #262626" transform="translate(499.365017 384.928437) scale(0.132 -0.132)">
       <defs>
        <path id="DejaVuSerif-31" d="M 909 0 
L 909 331 
L 1722 331 
L 1722 4213 
L 781 3603 
L 781 4013 
L 1919 4750 
L 2350 4750 
L 2350 331 
L 3163 331 
L 3163 0 
L 909 0 
z
" transform="scale(0.015625)"/>
       </defs>
       <use xlink:href="#DejaVuSerif-31"/>
       <use xlink:href="#DejaVuSerif-2e" transform="translate(63.623047 0)"/>
       <use xlink:href="#DejaVuSerif-30" transform="translate(95.410156 0)"/>
       <use xlink:href="#DejaVuSerif-30" transform="translate(159.033203 0)"/>
      </g>
     </g>
    </g>
    <g id="text_6">
     <!-- Bias Factor ($f$) -->
     <g style="fill: #262626" transform="translate(246.940875 402.615375) scale(0.144 -0.144)">
      <defs>
       <path id="DejaVuSerif-42" d="M 1581 331 
L 2516 331 
Q 3078 331 3337 575 
Q 3597 819 3597 1350 
Q 3597 1878 3339 2120 
Q 3081 2363 2516 2363 
L 1581 2363 
L 1581 331 
z
M 1581 2694 
L 2375 2694 
Q 2888 2694 3123 2891 
Q 3359 3088 3359 3513 
Q 3359 3941 3123 4136 
Q 2888 4331 2375 4331 
L 1581 4331 
L 1581 2694 
z
M 353 0 
L 353 331 
L 947 331 
L 947 4331 
L 353 4331 
L 353 4666 
L 2656 4666 
Q 3363 4666 3720 4377 
Q 4078 4088 4078 3513 
Q 4078 3097 3829 2850 
Q 3581 2603 3103 2547 
Q 3697 2472 4005 2167 
Q 4313 1863 4313 1350 
Q 4313 656 3875 328 
Q 3438 0 2509 0 
L 353 0 
z
" transform="scale(0.015625)"/>
       <path id="DejaVuSerif-69" d="M 622 4353 
Q 622 4497 726 4603 
Q 831 4709 978 4709 
Q 1122 4709 1226 4603 
Q 1331 4497 1331 4353 
Q 1331 4206 1228 4103 
Q 1125 4000 978 4000 
Q 831 4000 726 4103 
Q 622 4206 622 4353 
z
M 1356 331 
L 1900 331 
L 1900 0 
L 231 0 
L 231 331 
L 781 331 
L 781 2988 
L 231 2988 
L 231 3322 
L 1356 3322 
L 1356 331 
z
" transform="scale(0.015625)"/>
       <path id="DejaVuSerif-61" d="M 2547 1044 
L 2547 1747 
L 1806 1747 
Q 1378 1747 1168 1562 
Q 959 1378 959 997 
Q 959 650 1171 447 
Q 1384 244 1747 244 
Q 2106 244 2326 466 
Q 2547 688 2547 1044 
z
M 3122 2075 
L 3122 331 
L 3634 331 
L 3634 0 
L 2547 0 
L 2547 359 
Q 2356 128 2106 18 
Q 1856 -91 1522 -91 
Q 969 -91 644 203 
Q 319 497 319 997 
Q 319 1513 691 1797 
Q 1063 2081 1741 2081 
L 2547 2081 
L 2547 2309 
Q 2547 2688 2317 2895 
Q 2088 3103 1672 3103 
Q 1328 3103 1125 2947 
Q 922 2791 872 2484 
L 575 2484 
L 575 3156 
Q 875 3284 1158 3348 
Q 1441 3413 1709 3413 
Q 2400 3413 2761 3070 
Q 3122 2728 3122 2075 
z
" transform="scale(0.015625)"/>
       <path id="DejaVuSerif-73" d="M 359 184 
L 359 959 
L 691 959 
Q 703 588 923 403 
Q 1144 219 1575 219 
Q 1963 219 2166 364 
Q 2369 509 2369 788 
Q 2369 1006 2220 1140 
Q 2072 1275 1594 1428 
L 1178 1569 
Q 750 1706 558 1912 
Q 366 2119 366 2438 
Q 366 2894 700 3153 
Q 1034 3413 1625 3413 
Q 1888 3413 2178 3344 
Q 2469 3275 2778 3144 
L 2778 2419 
L 2447 2419 
Q 2434 2741 2221 2922 
Q 2009 3103 1644 3103 
Q 1281 3103 1095 2975 
Q 909 2847 909 2591 
Q 909 2381 1050 2254 
Q 1191 2128 1613 1997 
L 2069 1856 
Q 2541 1709 2748 1489 
Q 2956 1269 2956 922 
Q 2956 450 2595 179 
Q 2234 -91 1600 -91 
Q 1278 -91 972 -22 
Q 666 47 359 184 
z
" transform="scale(0.015625)"/>
       <path id="DejaVuSerif-20" transform="scale(0.015625)"/>
       <path id="DejaVuSerif-46" d="M 353 0 
L 353 331 
L 947 331 
L 947 4331 
L 353 4331 
L 353 4666 
L 4172 4666 
L 4172 3628 
L 3788 3628 
L 3788 4281 
L 1581 4281 
L 1581 2719 
L 3175 2719 
L 3175 3303 
L 3559 3303 
L 3559 1753 
L 3175 1753 
L 3175 2338 
L 1581 2338 
L 1581 331 
L 2328 331 
L 2328 0 
L 353 0 
z
" transform="scale(0.015625)"/>
       <path id="DejaVuSerif-63" d="M 3291 997 
Q 3169 466 2822 187 
Q 2475 -91 1925 -91 
Q 1200 -91 759 389 
Q 319 869 319 1663 
Q 319 2459 759 2936 
Q 1200 3413 1925 3413 
Q 2241 3413 2553 3339 
Q 2866 3266 3181 3116 
L 3181 2266 
L 2847 2266 
Q 2781 2703 2561 2903 
Q 2341 3103 1931 3103 
Q 1466 3103 1228 2742 
Q 991 2381 991 1663 
Q 991 944 1227 581 
Q 1463 219 1931 219 
Q 2303 219 2525 412 
Q 2747 606 2828 997 
L 3291 997 
z
" transform="scale(0.015625)"/>
       <path id="DejaVuSerif-74" d="M 691 2988 
L 184 2988 
L 184 3322 
L 691 3322 
L 691 4353 
L 1269 4353 
L 1269 3322 
L 2350 3322 
L 2350 2988 
L 1269 2988 
L 1269 878 
Q 1269 456 1350 337 
Q 1431 219 1650 219 
Q 1875 219 1978 351 
Q 2081 484 2088 781 
L 2522 781 
Q 2497 328 2275 118 
Q 2053 -91 1600 -91 
Q 1103 -91 897 129 
Q 691 350 691 878 
L 691 2988 
z
" transform="scale(0.015625)"/>
       <path id="DejaVuSerif-6f" d="M 1925 219 
Q 2388 219 2623 584 
Q 2859 950 2859 1663 
Q 2859 2375 2623 2739 
Q 2388 3103 1925 3103 
Q 1463 3103 1227 2739 
Q 991 2375 991 1663 
Q 991 950 1228 584 
Q 1466 219 1925 219 
z
M 1925 -91 
Q 1200 -91 759 389 
Q 319 869 319 1663 
Q 319 2456 758 2934 
Q 1197 3413 1925 3413 
Q 2653 3413 3092 2934 
Q 3531 2456 3531 1663 
Q 3531 869 3092 389 
Q 2653 -91 1925 -91 
z
" transform="scale(0.015625)"/>
       <path id="DejaVuSerif-72" d="M 3059 3328 
L 3059 2497 
L 2728 2497 
Q 2713 2744 2591 2866 
Q 2469 2988 2234 2988 
Q 1809 2988 1582 2694 
Q 1356 2400 1356 1850 
L 1356 331 
L 2022 331 
L 2022 0 
L 263 0 
L 263 331 
L 781 331 
L 781 2994 
L 231 2994 
L 231 3322 
L 1356 3322 
L 1356 2731 
Q 1525 3078 1790 3245 
Q 2056 3413 2438 3413 
Q 2578 3413 2733 3391 
Q 2888 3369 3059 3328 
z
" transform="scale(0.015625)"/>
       <path id="DejaVuSerif-28" d="M 2041 -997 
Q 1281 -656 893 83 
Q 506 822 506 1931 
Q 506 3044 893 3783 
Q 1281 4522 2041 4863 
L 2041 4556 
Q 1559 4225 1350 3623 
Q 1141 3022 1141 1931 
Q 1141 844 1350 242 
Q 1559 -359 2041 -691 
L 2041 -997 
z
" transform="scale(0.015625)"/>
       <path id="DejaVuSans-Oblique-66" d="M 3059 4863 
L 2969 4384 
L 2419 4384 
Q 2106 4384 1964 4261 
Q 1822 4138 1753 3809 
L 1691 3500 
L 2638 3500 
L 2553 3053 
L 1606 3053 
L 1013 0 
L 434 0 
L 1031 3053 
L 481 3053 
L 563 3500 
L 1113 3500 
L 1159 3744 
Q 1278 4363 1576 4613 
Q 1875 4863 2516 4863 
L 3059 4863 
z
" transform="scale(0.015625)"/>
       <path id="DejaVuSerif-29" d="M 453 -997 
L 453 -691 
Q 934 -359 1145 242 
Q 1356 844 1356 1931 
Q 1356 3022 1145 3623 
Q 934 4225 453 4556 
L 453 4863 
Q 1216 4522 1603 3783 
Q 1991 3044 1991 1931 
Q 1991 822 1603 83 
Q 1216 -656 453 -997 
z
" transform="scale(0.015625)"/>
      </defs>
      <use xlink:href="#DejaVuSerif-42" transform="translate(0 0.015625)"/>
      <use xlink:href="#DejaVuSerif-69" transform="translate(73.486328 0.015625)"/>
      <use xlink:href="#DejaVuSerif-61" transform="translate(105.46875 0.015625)"/>
      <use xlink:href="#DejaVuSerif-73" transform="translate(165.087891 0.015625)"/>
      <use xlink:href="#DejaVuSerif-20" transform="translate(216.40625 0.015625)"/>
      <use xlink:href="#DejaVuSerif-46" transform="translate(248.193359 0.015625)"/>
      <use xlink:href="#DejaVuSerif-61" transform="translate(317.578125 0.015625)"/>
      <use xlink:href="#DejaVuSerif-63" transform="translate(377.197266 0.015625)"/>
      <use xlink:href="#DejaVuSerif-74" transform="translate(433.203125 0.015625)"/>
      <use xlink:href="#DejaVuSerif-6f" transform="translate(473.388672 0.015625)"/>
      <use xlink:href="#DejaVuSerif-72" transform="translate(533.59375 0.015625)"/>
      <use xlink:href="#DejaVuSerif-20" transform="translate(581.396484 0.015625)"/>
      <use xlink:href="#DejaVuSerif-28" transform="translate(613.183594 0.015625)"/>
      <use xlink:href="#DejaVuSans-Oblique-66" transform="translate(652.197266 0.015625)"/>
      <use xlink:href="#DejaVuSerif-29" transform="translate(687.402344 0.015625)"/>
     </g>
    </g>
   </g>
   <g id="matplotlib.axis_2">
    <g id="ytick_1">
     <g id="line2d_6">
      <path d="M 63.031875 351.087545 
L 535.537875 351.087545 
" clip-path="url(#pb903784519)" style="fill: none; stroke-dasharray: 2.96,1.28; stroke-dashoffset: 0; stroke: #cccccc; stroke-opacity: 0.7; stroke-width: 0.8"/>
     </g>
     <g id="text_7">
      <!-- 0.00 -->
      <g style="fill: #262626" transform="translate(25.34125 356.102514) scale(0.132 -0.132)">
       <use xlink:href="#DejaVuSerif-30"/>
       <use xlink:href="#DejaVuSerif-2e" transform="translate(63.623047 0)"/>
       <use xlink:href="#DejaVuSerif-30" transform="translate(95.410156 0)"/>
       <use xlink:href="#DejaVuSerif-30" transform="translate(159.033203 0)"/>
      </g>
     </g>
    </g>
    <g id="ytick_2">
     <g id="line2d_7">
      <path d="M 63.031875 291.823374 
L 535.537875 291.823374 
" clip-path="url(#pb903784519)" style="fill: none; stroke-dasharray: 2.96,1.28; stroke-dashoffset: 0; stroke: #cccccc; stroke-opacity: 0.7; stroke-width: 0.8"/>
     </g>
     <g id="text_8">
      <!-- 0.05 -->
      <g style="fill: #262626" transform="translate(25.34125 296.838343) scale(0.132 -0.132)">
       <use xlink:href="#DejaVuSerif-30"/>
       <use xlink:href="#DejaVuSerif-2e" transform="translate(63.623047 0)"/>
       <use xlink:href="#DejaVuSerif-30" transform="translate(95.410156 0)"/>
       <use xlink:href="#DejaVuSerif-35" transform="translate(159.033203 0)"/>
      </g>
     </g>
    </g>
    <g id="ytick_3">
     <g id="line2d_8">
      <path d="M 63.031875 232.559203 
L 535.537875 232.559203 
" clip-path="url(#pb903784519)" style="fill: none; stroke-dasharray: 2.96,1.28; stroke-dashoffset: 0; stroke: #cccccc; stroke-opacity: 0.7; stroke-width: 0.8"/>
     </g>
     <g id="text_9">
      <!-- 0.10 -->
      <g style="fill: #262626" transform="translate(25.34125 237.574172) scale(0.132 -0.132)">
       <use xlink:href="#DejaVuSerif-30"/>
       <use xlink:href="#DejaVuSerif-2e" transform="translate(63.623047 0)"/>
       <use xlink:href="#DejaVuSerif-31" transform="translate(95.410156 0)"/>
       <use xlink:href="#DejaVuSerif-30" transform="translate(159.033203 0)"/>
      </g>
     </g>
    </g>
    <g id="ytick_4">
     <g id="line2d_9">
      <path d="M 63.031875 173.295032 
L 535.537875 173.295032 
" clip-path="url(#pb903784519)" style="fill: none; stroke-dasharray: 2.96,1.28; stroke-dashoffset: 0; stroke: #cccccc; stroke-opacity: 0.7; stroke-width: 0.8"/>
     </g>
     <g id="text_10">
      <!-- 0.15 -->
      <g style="fill: #262626" transform="translate(25.34125 178.310001) scale(0.132 -0.132)">
       <use xlink:href="#DejaVuSerif-30"/>
       <use xlink:href="#DejaVuSerif-2e" transform="translate(63.623047 0)"/>
       <use xlink:href="#DejaVuSerif-31" transform="translate(95.410156 0)"/>
       <use xlink:href="#DejaVuSerif-35" transform="translate(159.033203 0)"/>
      </g>
     </g>
    </g>
    <g id="ytick_5">
     <g id="line2d_10">
      <path d="M 63.031875 114.030861 
L 535.537875 114.030861 
" clip-path="url(#pb903784519)" style="fill: none; stroke-dasharray: 2.96,1.28; stroke-dashoffset: 0; stroke: #cccccc; stroke-opacity: 0.7; stroke-width: 0.8"/>
     </g>
     <g id="text_11">
      <!-- 0.20 -->
      <g style="fill: #262626" transform="translate(25.34125 119.045829) scale(0.132 -0.132)">
       <use xlink:href="#DejaVuSerif-30"/>
       <use xlink:href="#DejaVuSerif-2e" transform="translate(63.623047 0)"/>
       <use xlink:href="#DejaVuSerif-32" transform="translate(95.410156 0)"/>
       <use xlink:href="#DejaVuSerif-30" transform="translate(159.033203 0)"/>
      </g>
     </g>
    </g>
    <g id="ytick_6">
     <g id="line2d_11">
      <path d="M 63.031875 54.766689 
L 535.537875 54.766689 
" clip-path="url(#pb903784519)" style="fill: none; stroke-dasharray: 2.96,1.28; stroke-dashoffset: 0; stroke: #cccccc; stroke-opacity: 0.7; stroke-width: 0.8"/>
     </g>
     <g id="text_12">
      <!-- 0.25 -->
      <g style="fill: #262626" transform="translate(25.34125 59.781658) scale(0.132 -0.132)">
       <use xlink:href="#DejaVuSerif-30"/>
       <use xlink:href="#DejaVuSerif-2e" transform="translate(63.623047 0)"/>
       <use xlink:href="#DejaVuSerif-32" transform="translate(95.410156 0)"/>
       <use xlink:href="#DejaVuSerif-35" transform="translate(159.033203 0)"/>
      </g>
     </g>
    </g>
    <g id="text_13">
     <!-- False Negative Proportion -->
     <g style="fill: #262626" transform="translate(18.14175 291.779625) rotate(-90) scale(0.144 -0.144)">
      <defs>
       <path id="DejaVuSerif-6c" d="M 1313 331 
L 1856 331 
L 1856 0 
L 184 0 
L 184 331 
L 738 331 
L 738 4531 
L 184 4531 
L 184 4863 
L 1313 4863 
L 1313 331 
z
" transform="scale(0.015625)"/>
       <path id="DejaVuSerif-65" d="M 3469 1600 
L 991 1600 
L 991 1575 
Q 991 903 1244 561 
Q 1497 219 1991 219 
Q 2369 219 2611 417 
Q 2853 616 2950 1006 
L 3413 1006 
Q 3275 459 2904 184 
Q 2534 -91 1931 -91 
Q 1203 -91 761 389 
Q 319 869 319 1663 
Q 319 2450 753 2931 
Q 1188 3413 1894 3413 
Q 2647 3413 3050 2948 
Q 3453 2484 3469 1600 
z
M 2791 1931 
Q 2772 2513 2545 2808 
Q 2319 3103 1894 3103 
Q 1497 3103 1269 2806 
Q 1041 2509 991 1931 
L 2791 1931 
z
" transform="scale(0.015625)"/>
       <path id="DejaVuSerif-4e" d="M 313 0 
L 313 331 
L 941 331 
L 941 4331 
L 313 4331 
L 313 4666 
L 1509 4666 
L 4306 984 
L 4306 4331 
L 3681 4331 
L 3681 4666 
L 5319 4666 
L 5319 4331 
L 4691 4331 
L 4691 -91 
L 4313 -91 
L 1325 3841 
L 1325 331 
L 1953 331 
L 1953 0 
L 313 0 
z
" transform="scale(0.015625)"/>
       <path id="DejaVuSerif-67" d="M 3359 2988 
L 3359 72 
Q 3359 -644 2965 -1033 
Q 2572 -1422 1844 -1422 
Q 1516 -1422 1216 -1362 
Q 916 -1303 641 -1184 
L 641 -488 
L 941 -488 
Q 997 -813 1206 -963 
Q 1416 -1113 1806 -1113 
Q 2313 -1113 2548 -827 
Q 2784 -541 2784 72 
L 2784 519 
Q 2616 206 2355 57 
Q 2094 -91 1709 -91 
Q 1097 -91 708 395 
Q 319 881 319 1663 
Q 319 2444 706 2928 
Q 1094 3413 1709 3413 
Q 2094 3413 2355 3264 
Q 2616 3116 2784 2803 
L 2784 3322 
L 3909 3322 
L 3909 2988 
L 3359 2988 
z
M 2784 1825 
Q 2784 2422 2554 2737 
Q 2325 3053 1888 3053 
Q 1444 3053 1217 2703 
Q 991 2353 991 1663 
Q 991 975 1217 622 
Q 1444 269 1888 269 
Q 2325 269 2554 583 
Q 2784 897 2784 1497 
L 2784 1825 
z
" transform="scale(0.015625)"/>
       <path id="DejaVuSerif-76" d="M 1581 0 
L 359 2988 
L -19 2988 
L -19 3322 
L 1509 3322 
L 1509 2988 
L 978 2988 
L 1913 703 
L 2847 2988 
L 2350 2988 
L 2350 3322 
L 3597 3322 
L 3597 2988 
L 3225 2988 
L 2003 0 
L 1581 0 
z
" transform="scale(0.015625)"/>
       <path id="DejaVuSerif-50" d="M 1581 2375 
L 2406 2375 
Q 2872 2375 3115 2626 
Q 3359 2878 3359 3353 
Q 3359 3831 3115 4081 
Q 2872 4331 2406 4331 
L 1581 4331 
L 1581 2375 
z
M 353 0 
L 353 331 
L 947 331 
L 947 4331 
L 353 4331 
L 353 4666 
L 2559 4666 
Q 3259 4666 3668 4311 
Q 4078 3956 4078 3353 
Q 4078 2753 3668 2397 
Q 3259 2041 2559 2041 
L 1581 2041 
L 1581 331 
L 2303 331 
L 2303 0 
L 353 0 
z
" transform="scale(0.015625)"/>
       <path id="DejaVuSerif-70" d="M 1313 1825 
L 1313 1497 
Q 1313 897 1542 583 
Q 1772 269 2209 269 
Q 2650 269 2876 622 
Q 3103 975 3103 1663 
Q 3103 2353 2876 2703 
Q 2650 3053 2209 3053 
Q 1772 3053 1542 2737 
Q 1313 2422 1313 1825 
z
M 738 2988 
L 184 2988 
L 184 3322 
L 1313 3322 
L 1313 2803 
Q 1481 3116 1742 3264 
Q 2003 3413 2388 3413 
Q 3000 3413 3387 2928 
Q 3775 2444 3775 1663 
Q 3775 881 3387 395 
Q 3000 -91 2388 -91 
Q 2003 -91 1742 57 
Q 1481 206 1313 519 
L 1313 -997 
L 1856 -997 
L 1856 -1331 
L 184 -1331 
L 184 -997 
L 738 -997 
L 738 2988 
z
" transform="scale(0.015625)"/>
       <path id="DejaVuSerif-6e" d="M 263 0 
L 263 331 
L 781 331 
L 781 2988 
L 231 2988 
L 231 3322 
L 1356 3322 
L 1356 2731 
Q 1516 3069 1770 3241 
Q 2025 3413 2363 3413 
Q 2913 3413 3172 3097 
Q 3431 2781 3431 2113 
L 3431 331 
L 3944 331 
L 3944 0 
L 2356 0 
L 2356 331 
L 2853 331 
L 2853 1931 
Q 2853 2541 2703 2767 
Q 2553 2994 2175 2994 
Q 1775 2994 1565 2701 
Q 1356 2409 1356 1850 
L 1356 331 
L 1856 331 
L 1856 0 
L 263 0 
z
" transform="scale(0.015625)"/>
      </defs>
      <use xlink:href="#DejaVuSerif-46"/>
      <use xlink:href="#DejaVuSerif-61" transform="translate(62.634766 0)"/>
      <use xlink:href="#DejaVuSerif-6c" transform="translate(122.253906 0)"/>
      <use xlink:href="#DejaVuSerif-73" transform="translate(154.236328 0)"/>
      <use xlink:href="#DejaVuSerif-65" transform="translate(205.554688 0)"/>
      <use xlink:href="#DejaVuSerif-20" transform="translate(264.734375 0)"/>
      <use xlink:href="#DejaVuSerif-4e" transform="translate(296.521484 0)"/>
      <use xlink:href="#DejaVuSerif-65" transform="translate(384.021484 0)"/>
      <use xlink:href="#DejaVuSerif-67" transform="translate(443.201172 0)"/>
      <use xlink:href="#DejaVuSerif-61" transform="translate(507.214844 0)"/>
      <use xlink:href="#DejaVuSerif-74" transform="translate(566.833984 0)"/>
      <use xlink:href="#DejaVuSerif-69" transform="translate(607.019531 0)"/>
      <use xlink:href="#DejaVuSerif-76" transform="translate(639.001953 0)"/>
      <use xlink:href="#DejaVuSerif-65" transform="translate(695.496094 0)"/>
      <use xlink:href="#DejaVuSerif-20" transform="translate(754.675781 0)"/>
      <use xlink:href="#DejaVuSerif-50" transform="translate(786.462891 0)"/>
      <use xlink:href="#DejaVuSerif-72" transform="translate(853.748047 0)"/>
      <use xlink:href="#DejaVuSerif-6f" transform="translate(901.550781 0)"/>
      <use xlink:href="#DejaVuSerif-70" transform="translate(961.755859 0)"/>
      <use xlink:href="#DejaVuSerif-6f" transform="translate(1025.769531 0)"/>
      <use xlink:href="#DejaVuSerif-72" transform="translate(1085.974609 0)"/>
      <use xlink:href="#DejaVuSerif-74" transform="translate(1133.777344 0)"/>
      <use xlink:href="#DejaVuSerif-69" transform="translate(1173.962891 0)"/>
      <use xlink:href="#DejaVuSerif-6f" transform="translate(1205.945312 0)"/>
      <use xlink:href="#DejaVuSerif-6e" transform="translate(1266.150391 0)"/>
     </g>
    </g>
   </g>
   <g id="line2d_12">
    <path d="M 84.50942 291.167797 
L 191.897148 339.156042 
L 299.284875 341.253889 
L 406.672602 336.271503 
L 514.06033 279.498524 
" clip-path="url(#pb903784519)" style="fill: none; stroke: #f77189; stroke-width: 2; stroke-linecap: round"/>
    <defs>
     <path id="m7d36aa139a" d="M 0 2.4 
C 0.636487 2.4 1.246992 2.147121 1.697056 1.697056 
C 2.147121 1.246992 2.4 0.636487 2.4 0 
C 2.4 -0.636487 2.147121 -1.246992 1.697056 -1.697056 
C 1.246992 -2.147121 0.636487 -2.4 0 -2.4 
C -0.636487 -2.4 -1.246992 -2.147121 -1.697056 -1.697056 
C -2.147121 -1.246992 -2.4 -0.636487 -2.4 0 
C -2.4 0.636487 -2.147121 1.246992 -1.697056 1.697056 
C -1.246992 2.147121 -0.636487 2.4 0 2.4 
z
" style="stroke: #f77189"/>
    </defs>
    <g clip-path="url(#pb903784519)">
     <use xlink:href="#m7d36aa139a" x="84.50942" y="291.167797" style="fill: #f77189; stroke: #f77189"/>
     <use xlink:href="#m7d36aa139a" x="191.897148" y="339.156042" style="fill: #f77189; stroke: #f77189"/>
     <use xlink:href="#m7d36aa139a" x="299.284875" y="341.253889" style="fill: #f77189; stroke: #f77189"/>
     <use xlink:href="#m7d36aa139a" x="406.672602" y="336.271503" style="fill: #f77189; stroke: #f77189"/>
     <use xlink:href="#m7d36aa139a" x="514.06033" y="279.498524" style="fill: #f77189; stroke: #f77189"/>
    </g>
   </g>
   <g id="line2d_13">
    <path d="M 84.50942 307.163879 
L 191.897148 333.124732 
L 299.284875 326.0445 
L 406.672602 327.617885 
L 514.06033 319.226498 
" clip-path="url(#pb903784519)" style="fill: none; stroke: #bb9832; stroke-width: 2; stroke-linecap: round"/>
    <defs>
     <path id="m2b5a4237cc" d="M 0 2.4 
C 0.636487 2.4 1.246992 2.147121 1.697056 1.697056 
C 2.147121 1.246992 2.4 0.636487 2.4 0 
C 2.4 -0.636487 2.147121 -1.246992 1.697056 -1.697056 
C 1.246992 -2.147121 0.636487 -2.4 0 -2.4 
C -0.636487 -2.4 -1.246992 -2.147121 -1.697056 -1.697056 
C -2.147121 -1.246992 -2.4 -0.636487 -2.4 0 
C -2.4 0.636487 -2.147121 1.246992 -1.697056 1.697056 
C -1.246992 2.147121 -0.636487 2.4 0 2.4 
z
" style="stroke: #bb9832"/>
    </defs>
    <g clip-path="url(#pb903784519)">
     <use xlink:href="#m2b5a4237cc" x="84.50942" y="307.163879" style="fill: #bb9832; stroke: #bb9832"/>
     <use xlink:href="#m2b5a4237cc" x="191.897148" y="333.124732" style="fill: #bb9832; stroke: #bb9832"/>
     <use xlink:href="#m2b5a4237cc" x="299.284875" y="326.0445" style="fill: #bb9832; stroke: #bb9832"/>
     <use xlink:href="#m2b5a4237cc" x="406.672602" y="327.617885" style="fill: #bb9832; stroke: #bb9832"/>
     <use xlink:href="#m2b5a4237cc" x="514.06033" y="319.226498" style="fill: #bb9832; stroke: #bb9832"/>
    </g>
   </g>
   <g id="line2d_14">
    <path d="M 84.50942 350.431968 
L 191.897148 350.825315 
L 299.284875 351.087545 
L 406.672602 351.087545 
L 514.06033 350.95643 
" clip-path="url(#pb903784519)" style="fill: none; stroke: #50b131; stroke-width: 2; stroke-linecap: round"/>
    <defs>
     <path id="mfd2e8a0539" d="M 0 2.4 
C 0.636487 2.4 1.246992 2.147121 1.697056 1.697056 
C 2.147121 1.246992 2.4 0.636487 2.4 0 
C 2.4 -0.636487 2.147121 -1.246992 1.697056 -1.697056 
C 1.246992 -2.147121 0.636487 -2.4 0 -2.4 
C -0.636487 -2.4 -1.246992 -2.147121 -1.697056 -1.697056 
C -2.147121 -1.246992 -2.4 -0.636487 -2.4 0 
C -2.4 0.636487 -2.147121 1.246992 -1.697056 1.697056 
C -1.246992 2.147121 -0.636487 2.4 0 2.4 
z
" style="stroke: #50b131"/>
    </defs>
    <g clip-path="url(#pb903784519)">
     <use xlink:href="#mfd2e8a0539" x="84.50942" y="350.431968" style="fill: #50b131; stroke: #50b131"/>
     <use xlink:href="#mfd2e8a0539" x="191.897148" y="350.825315" style="fill: #50b131; stroke: #50b131"/>
     <use xlink:href="#mfd2e8a0539" x="299.284875" y="351.087545" style="fill: #50b131; stroke: #50b131"/>
     <use xlink:href="#mfd2e8a0539" x="406.672602" y="351.087545" style="fill: #50b131; stroke: #50b131"/>
     <use xlink:href="#mfd2e8a0539" x="514.06033" y="350.95643" style="fill: #50b131; stroke: #50b131"/>
    </g>
   </g>
   <g id="line2d_15">
    <path d="M 84.50942 198.338078 
L 191.897148 317.390882 
L 299.284875 323.028845 
L 406.672602 314.637458 
L 514.06033 40.868455 
" clip-path="url(#pb903784519)" style="fill: none; stroke: #3ba3ec; stroke-width: 2; stroke-linecap: round"/>
    <defs>
     <path id="m966b3a5c4f" d="M 0 2.4 
C 0.636487 2.4 1.246992 2.147121 1.697056 1.697056 
C 2.147121 1.246992 2.4 0.636487 2.4 0 
C 2.4 -0.636487 2.147121 -1.246992 1.697056 -1.697056 
C 1.246992 -2.147121 0.636487 -2.4 0 -2.4 
C -0.636487 -2.4 -1.246992 -2.147121 -1.697056 -1.697056 
C -2.147121 -1.246992 -2.4 -0.636487 -2.4 0 
C -2.4 0.636487 -2.147121 1.246992 -1.697056 1.697056 
C -1.246992 2.147121 -0.636487 2.4 0 2.4 
z
" style="stroke: #3ba3ec"/>
    </defs>
    <g clip-path="url(#pb903784519)">
     <use xlink:href="#m966b3a5c4f" x="84.50942" y="198.338078" style="fill: #3ba3ec; stroke: #3ba3ec"/>
     <use xlink:href="#m966b3a5c4f" x="191.897148" y="317.390882" style="fill: #3ba3ec; stroke: #3ba3ec"/>
     <use xlink:href="#m966b3a5c4f" x="299.284875" y="323.028845" style="fill: #3ba3ec; stroke: #3ba3ec"/>
     <use xlink:href="#m966b3a5c4f" x="406.672602" y="314.637458" style="fill: #3ba3ec; stroke: #3ba3ec"/>
     <use xlink:href="#m966b3a5c4f" x="514.06033" y="40.868455" style="fill: #3ba3ec; stroke: #3ba3ec"/>
    </g>
   </g>
   <g id="line2d_16">
    <path d="M 84.50942 328.929039 
L 191.897148 341.909466 
L 299.284875 342.433928 
L 406.672602 342.696158 
L 514.06033 284.087564 
" clip-path="url(#pb903784519)" style="fill: none; stroke: #e866f4; stroke-width: 2; stroke-linecap: round"/>
    <defs>
     <path id="m0b2767440e" d="M 0 2.4 
C 0.636487 2.4 1.246992 2.147121 1.697056 1.697056 
C 2.147121 1.246992 2.4 0.636487 2.4 0 
C 2.4 -0.636487 2.147121 -1.246992 1.697056 -1.697056 
C 1.246992 -2.147121 0.636487 -2.4 0 -2.4 
C -0.636487 -2.4 -1.246992 -2.147121 -1.697056 -1.697056 
C -2.147121 -1.246992 -2.4 -0.636487 -2.4 0 
C -2.4 0.636487 -2.147121 1.246992 -1.697056 1.697056 
C -1.246992 2.147121 -0.636487 2.4 0 2.4 
z
" style="stroke: #e866f4"/>
    </defs>
    <g clip-path="url(#pb903784519)">
     <use xlink:href="#m0b2767440e" x="84.50942" y="328.929039" style="fill: #e866f4; stroke: #e866f4"/>
     <use xlink:href="#m0b2767440e" x="191.897148" y="341.909466" style="fill: #e866f4; stroke: #e866f4"/>
     <use xlink:href="#m0b2767440e" x="299.284875" y="342.433928" style="fill: #e866f4; stroke: #e866f4"/>
     <use xlink:href="#m0b2767440e" x="406.672602" y="342.696158" style="fill: #e866f4; stroke: #e866f4"/>
     <use xlink:href="#m0b2767440e" x="514.06033" y="284.087564" style="fill: #e866f4; stroke: #e866f4"/>
    </g>
   </g>
   <g id="patch_3">
    <path d="M 63.031875 366.5985 
L 63.031875 25.3575 
" style="fill: none; stroke: #cccccc; stroke-linejoin: miter; stroke-linecap: square"/>
   </g>
   <g id="patch_4">
    <path d="M 535.537875 366.5985 
L 535.537875 25.3575 
" style="fill: none; stroke: #cccccc; stroke-linejoin: miter; stroke-linecap: square"/>
   </g>
   <g id="patch_5">
    <path d="M 63.031875 366.5985 
L 535.537875 366.5985 
" style="fill: none; stroke: #cccccc; stroke-linejoin: miter; stroke-linecap: square"/>
   </g>
   <g id="patch_6">
    <path d="M 63.031875 25.3575 
L 535.537875 25.3575 
" style="fill: none; stroke: #cccccc; stroke-linejoin: miter; stroke-linecap: square"/>
   </g>
   <g id="text_14">
    <!-- Error Distribution under Bias Variation - Target: Squint -->
    <g style="fill: #262626" transform="translate(49.009875 19.3575) scale(0.16 -0.16)">
     <defs>
      <path id="DejaVuSerif-Bold-45" d="M 300 0 
L 300 378 
L 897 378 
L 897 4288 
L 300 4288 
L 300 4666 
L 4494 4666 
L 4494 3566 
L 4063 3566 
L 4063 4238 
L 2100 4238 
L 2100 2741 
L 3322 2741 
L 3322 3334 
L 3750 3334 
L 3750 1722 
L 3322 1722 
L 3322 2316 
L 2100 2316 
L 2100 428 
L 4122 428 
L 4122 1100 
L 4550 1100 
L 4550 0 
L 300 0 
z
" transform="scale(0.015625)"/>
      <path id="DejaVuSerif-Bold-72" d="M 3438 3359 
L 3438 2369 
L 3084 2369 
Q 3066 2634 2941 2764 
Q 2816 2894 2578 2894 
Q 2216 2894 2006 2575 
Q 1797 2256 1797 1691 
L 1797 378 
L 2400 378 
L 2400 0 
L 219 0 
L 219 378 
L 691 378 
L 691 2944 
L 184 2944 
L 184 3322 
L 1797 3322 
L 1797 2731 
Q 1959 3078 2226 3245 
Q 2494 3413 2881 3413 
Q 2978 3413 3117 3398 
Q 3256 3384 3438 3359 
z
" transform="scale(0.015625)"/>
      <path id="DejaVuSerif-Bold-6f" d="M 2138 263 
Q 2488 263 2630 563 
Q 2772 863 2772 1663 
Q 2772 2463 2631 2761 
Q 2491 3059 2138 3059 
Q 1784 3059 1640 2757 
Q 1497 2456 1497 1663 
Q 1497 869 1640 566 
Q 1784 263 2138 263 
z
M 2138 -91 
Q 1259 -91 761 376 
Q 263 844 263 1663 
Q 263 2484 761 2948 
Q 1259 3413 2138 3413 
Q 3019 3413 3516 2948 
Q 4013 2484 4013 1663 
Q 4013 844 3514 376 
Q 3016 -91 2138 -91 
z
" transform="scale(0.015625)"/>
      <path id="DejaVuSerif-Bold-20" transform="scale(0.015625)"/>
      <path id="DejaVuSerif-Bold-44" d="M 2100 378 
L 2534 378 
Q 3266 378 3605 847 
Q 3944 1316 3944 2338 
Q 3944 3353 3606 3820 
Q 3269 4288 2534 4288 
L 2100 4288 
L 2100 378 
z
M 300 0 
L 300 378 
L 897 378 
L 897 4288 
L 300 4288 
L 300 4666 
L 2694 4666 
Q 3950 4666 4615 4066 
Q 5281 3466 5281 2338 
Q 5281 1203 4614 601 
Q 3947 0 2694 0 
L 300 0 
z
" transform="scale(0.015625)"/>
      <path id="DejaVuSerif-Bold-69" d="M 588 4263 
Q 588 4516 763 4689 
Q 938 4863 1191 4863 
Q 1438 4863 1611 4689 
Q 1784 4516 1784 4263 
Q 1784 4016 1611 3842 
Q 1438 3669 1191 3669 
Q 938 3669 763 3841 
Q 588 4013 588 4263 
z
M 1797 378 
L 2272 378 
L 2272 0 
L 219 0 
L 219 378 
L 691 378 
L 691 2944 
L 219 2944 
L 219 3322 
L 1797 3322 
L 1797 378 
z
" transform="scale(0.015625)"/>
      <path id="DejaVuSerif-Bold-73" d="M 300 97 
L 300 1025 
L 653 1025 
Q 697 653 931 458 
Q 1166 263 1569 263 
Q 1906 263 2086 380 
Q 2266 497 2266 716 
Q 2266 916 2152 1025 
Q 2038 1134 1709 1216 
L 1253 1331 
Q 738 1459 506 1698 
Q 275 1938 275 2344 
Q 275 2884 650 3148 
Q 1025 3413 1806 3413 
Q 2100 3413 2433 3364 
Q 2766 3316 3169 3213 
L 3169 2375 
L 2816 2375 
Q 2788 2716 2573 2887 
Q 2359 3059 1959 3059 
Q 1622 3059 1448 2951 
Q 1275 2844 1275 2638 
Q 1275 2469 1375 2372 
Q 1475 2275 1734 2209 
L 2188 2094 
Q 2841 1928 3091 1684 
Q 3341 1441 3341 1006 
Q 3341 444 2939 176 
Q 2538 -91 1691 -91 
Q 1381 -91 1034 -44 
Q 688 3 300 97 
z
" transform="scale(0.015625)"/>
      <path id="DejaVuSerif-Bold-74" d="M 634 2944 
L 153 2944 
L 153 3322 
L 634 3322 
L 634 4353 
L 1741 4353 
L 1741 3322 
L 2663 3322 
L 2663 2944 
L 1741 2944 
L 1741 909 
Q 1741 475 1809 369 
Q 1878 263 2059 263 
Q 2259 263 2356 397 
Q 2453 531 2459 813 
L 2925 813 
Q 2897 313 2651 111 
Q 2406 -91 1806 -91 
Q 1122 -91 878 123 
Q 634 338 634 909 
L 634 2944 
z
" transform="scale(0.015625)"/>
      <path id="DejaVuSerif-Bold-62" d="M 622 378 
L 622 4488 
L 147 4488 
L 147 4863 
L 1728 4863 
L 1728 2900 
Q 1869 3159 2106 3286 
Q 2344 3413 2694 3413 
Q 3403 3413 3811 2945 
Q 4219 2478 4219 1663 
Q 4219 847 3811 378 
Q 3403 -91 2694 -91 
Q 2344 -91 2106 36 
Q 1869 163 1728 422 
L 1728 0 
L 147 0 
L 147 378 
L 622 378 
z
M 1728 1497 
Q 1728 916 1876 656 
Q 2025 397 2356 397 
Q 2697 397 2836 672 
Q 2975 947 2975 1663 
Q 2975 2378 2836 2651 
Q 2697 2925 2356 2925 
Q 2025 2925 1876 2665 
Q 1728 2406 1728 1825 
L 1728 1497 
z
" transform="scale(0.015625)"/>
      <path id="DejaVuSerif-Bold-75" d="M 3963 3322 
L 3963 378 
L 4434 378 
L 4434 0 
L 2853 0 
L 2853 469 
Q 2656 172 2400 40 
Q 2144 -91 1753 -91 
Q 1194 -91 908 239 
Q 622 569 622 1209 
L 622 2944 
L 147 2944 
L 147 3322 
L 1728 3322 
L 1728 1381 
Q 1728 763 1831 595 
Q 1934 428 2209 428 
Q 2544 428 2698 675 
Q 2853 922 2853 1459 
L 2853 2944 
L 2450 2944 
L 2450 3322 
L 3963 3322 
z
" transform="scale(0.015625)"/>
      <path id="DejaVuSerif-Bold-6e" d="M 219 0 
L 219 378 
L 691 378 
L 691 2944 
L 219 2944 
L 219 3322 
L 1797 3322 
L 1797 2853 
Q 1997 3150 2253 3281 
Q 2509 3413 2900 3413 
Q 3459 3413 3745 3083 
Q 4031 2753 4031 2113 
L 4031 378 
L 4506 378 
L 4506 0 
L 2522 0 
L 2522 378 
L 2925 378 
L 2925 2144 
Q 2925 2566 2817 2730 
Q 2709 2894 2444 2894 
Q 2109 2894 1953 2648 
Q 1797 2403 1797 1869 
L 1797 378 
L 2203 378 
L 2203 0 
L 219 0 
z
" transform="scale(0.015625)"/>
      <path id="DejaVuSerif-Bold-64" d="M 2747 1497 
L 2747 1825 
Q 2747 2406 2597 2665 
Q 2447 2925 2119 2925 
Q 1775 2925 1636 2651 
Q 1497 2378 1497 1663 
Q 1497 947 1637 672 
Q 1778 397 2119 397 
Q 2447 397 2597 656 
Q 2747 916 2747 1497 
z
M 3853 378 
L 4325 378 
L 4325 0 
L 2747 0 
L 2747 422 
Q 2606 163 2367 36 
Q 2128 -91 1778 -91 
Q 1072 -91 667 378 
Q 263 847 263 1663 
Q 263 2481 667 2947 
Q 1072 3413 1778 3413 
Q 2128 3413 2367 3286 
Q 2606 3159 2747 2900 
L 2747 4488 
L 2272 4488 
L 2272 4863 
L 3853 4863 
L 3853 378 
z
" transform="scale(0.015625)"/>
      <path id="DejaVuSerif-Bold-65" d="M 2566 1875 
Q 2566 2531 2444 2795 
Q 2322 3059 2028 3059 
Q 1744 3059 1620 2800 
Q 1497 2541 1497 1931 
L 1497 1875 
L 2566 1875 
z
M 3781 1503 
L 1497 1503 
L 1497 1478 
Q 1497 834 1690 548 
Q 1884 263 2316 263 
Q 2675 263 2897 453 
Q 3119 644 3181 1006 
L 3700 1006 
Q 3566 441 3166 175 
Q 2766 -91 2047 -91 
Q 1184 -91 723 364 
Q 263 819 263 1663 
Q 263 2488 734 2950 
Q 1206 3413 2047 3413 
Q 2872 3413 3312 2927 
Q 3753 2441 3781 1503 
z
" transform="scale(0.015625)"/>
      <path id="DejaVuSerif-Bold-42" d="M 300 0 
L 300 378 
L 897 378 
L 897 4288 
L 300 4288 
L 300 4666 
L 3066 4666 
Q 3919 4666 4347 4378 
Q 4775 4091 4775 3513 
Q 4775 3097 4479 2853 
Q 4184 2609 3603 2547 
Q 4306 2481 4681 2172 
Q 5056 1863 5056 1350 
Q 5056 656 4532 328 
Q 4009 0 2894 0 
L 300 0 
z
M 2100 2719 
L 2509 2719 
Q 3047 2719 3306 2914 
Q 3566 3109 3566 3513 
Q 3566 3919 3314 4103 
Q 3063 4288 2509 4288 
L 2100 4288 
L 2100 2719 
z
M 2100 378 
L 2547 378 
Q 3144 378 3431 615 
Q 3719 853 3719 1350 
Q 3719 1850 3428 2097 
Q 3138 2344 2547 2344 
L 2100 2344 
L 2100 378 
z
" transform="scale(0.015625)"/>
      <path id="DejaVuSerif-Bold-61" d="M 3525 2041 
L 3525 378 
L 4000 378 
L 4000 0 
L 2419 0 
L 2419 422 
Q 2200 159 1931 34 
Q 1663 -91 1319 -91 
Q 809 -91 536 182 
Q 263 456 263 966 
Q 263 1525 655 1803 
Q 1047 2081 1838 2081 
L 2419 2081 
L 2419 2278 
Q 2419 2681 2228 2873 
Q 2038 3066 1638 3066 
Q 1306 3066 1126 2930 
Q 947 2794 872 2484 
L 519 2484 
L 519 3200 
Q 816 3306 1134 3359 
Q 1453 3413 1806 3413 
Q 2697 3413 3111 3081 
Q 3525 2750 3525 2041 
z
M 2419 1044 
L 2419 1709 
L 2003 1709 
Q 1694 1709 1528 1540 
Q 1363 1372 1363 1056 
Q 1363 741 1483 584 
Q 1603 428 1850 428 
Q 2106 428 2262 597 
Q 2419 766 2419 1044 
z
" transform="scale(0.015625)"/>
      <path id="DejaVuSerif-Bold-56" d="M 5056 4666 
L 5056 4288 
L 4666 4288 
L 2906 0 
L 2163 0 
L 403 4288 
L -38 4288 
L -38 4666 
L 2150 4666 
L 2150 4288 
L 1697 4288 
L 2956 1197 
L 4225 4288 
L 3669 4288 
L 3669 4666 
L 5056 4666 
z
" transform="scale(0.015625)"/>
      <path id="DejaVuSerif-Bold-2d" d="M 347 2138 
L 2309 2138 
L 2309 1294 
L 347 1294 
L 347 2138 
z
" transform="scale(0.015625)"/>
      <path id="DejaVuSerif-Bold-54" d="M 1159 0 
L 1159 378 
L 1778 378 
L 1778 4238 
L 500 4238 
L 500 3500 
L 72 3500 
L 72 4666 
L 4697 4666 
L 4697 3500 
L 4275 3500 
L 4275 4238 
L 2988 4238 
L 2988 378 
L 3609 378 
L 3609 0 
L 1159 0 
z
" transform="scale(0.015625)"/>
      <path id="DejaVuSerif-Bold-67" d="M 3853 2944 
L 3853 44 
Q 3853 -656 3354 -1039 
Q 2856 -1422 1947 -1422 
Q 1616 -1422 1275 -1370 
Q 934 -1319 575 -1216 
L 575 -422 
L 928 -422 
Q 975 -750 1192 -909 
Q 1409 -1069 1813 -1069 
Q 2325 -1069 2536 -823 
Q 2747 -578 2747 44 
L 2747 422 
Q 2606 163 2367 36 
Q 2128 -91 1778 -91 
Q 1072 -91 667 378 
Q 263 847 263 1663 
Q 263 2481 667 2947 
Q 1072 3413 1778 3413 
Q 2128 3413 2367 3286 
Q 2606 3159 2747 2900 
L 2747 3322 
L 4325 3322 
L 4325 2944 
L 3853 2944 
z
M 2747 1825 
Q 2747 2406 2597 2665 
Q 2447 2925 2119 2925 
Q 1775 2925 1636 2651 
Q 1497 2378 1497 1663 
Q 1497 947 1637 672 
Q 1778 397 2119 397 
Q 2447 397 2597 656 
Q 2747 916 2747 1497 
L 2747 1825 
z
" transform="scale(0.015625)"/>
      <path id="DejaVuSerif-Bold-3a" d="M 588 2541 
Q 588 2788 761 2963 
Q 934 3138 1178 3138 
Q 1422 3138 1597 2961 
Q 1772 2784 1772 2541 
Q 1772 2297 1598 2125 
Q 1425 1953 1178 1953 
Q 931 1953 759 2125 
Q 588 2297 588 2541 
z
M 588 506 
Q 588 750 761 925 
Q 934 1100 1178 1100 
Q 1422 1100 1597 925 
Q 1772 750 1772 506 
Q 1772 259 1597 84 
Q 1422 -91 1178 -91 
Q 934 -91 761 84 
Q 588 259 588 506 
z
" transform="scale(0.015625)"/>
      <path id="DejaVuSerif-Bold-53" d="M 494 225 
L 494 1331 
L 891 1331 
Q 981 806 1318 547 
Q 1656 288 2253 288 
Q 2738 288 2991 472 
Q 3244 656 3244 1013 
Q 3244 1294 3072 1450 
Q 2900 1606 2363 1741 
L 1663 1913 
Q 978 2088 700 2398 
Q 422 2709 422 3284 
Q 422 3978 883 4364 
Q 1344 4750 2175 4750 
Q 2584 4750 3026 4681 
Q 3469 4613 3944 4475 
L 3944 3444 
L 3547 3444 
Q 3456 3925 3150 4148 
Q 2844 4372 2278 4372 
Q 1816 4372 1580 4211 
Q 1344 4050 1344 3731 
Q 1344 3441 1506 3289 
Q 1669 3138 2303 2975 
L 3003 2803 
Q 3653 2641 3945 2297 
Q 4238 1953 4238 1350 
Q 4238 644 3750 276 
Q 3263 -91 2316 -91 
Q 1859 -91 1409 -12 
Q 959 66 494 225 
z
" transform="scale(0.015625)"/>
      <path id="DejaVuSerif-Bold-71" d="M 3853 2944 
L 3853 -953 
L 4325 -953 
L 4325 -1331 
L 2234 -1331 
L 2234 -953 
L 2747 -953 
L 2747 422 
Q 2606 163 2367 36 
Q 2128 -91 1778 -91 
Q 1072 -91 667 378 
Q 263 847 263 1663 
Q 263 2481 667 2947 
Q 1072 3413 1778 3413 
Q 2128 3413 2367 3286 
Q 2606 3159 2747 2900 
L 2747 3322 
L 4325 3322 
L 4325 2944 
L 3853 2944 
z
M 2747 1825 
Q 2747 2406 2597 2665 
Q 2447 2925 2119 2925 
Q 1775 2925 1636 2651 
Q 1497 2378 1497 1663 
Q 1497 947 1637 672 
Q 1778 397 2119 397 
Q 2447 397 2597 656 
Q 2747 916 2747 1497 
L 2747 1825 
z
" transform="scale(0.015625)"/>
     </defs>
     <use xlink:href="#DejaVuSerif-Bold-45"/>
     <use xlink:href="#DejaVuSerif-Bold-72" transform="translate(76.220703 0)"/>
     <use xlink:href="#DejaVuSerif-Bold-72" transform="translate(128.90625 0)"/>
     <use xlink:href="#DejaVuSerif-Bold-6f" transform="translate(181.591797 0)"/>
     <use xlink:href="#DejaVuSerif-Bold-72" transform="translate(248.291016 0)"/>
     <use xlink:href="#DejaVuSerif-Bold-20" transform="translate(300.976562 0)"/>
     <use xlink:href="#DejaVuSerif-Bold-44" transform="translate(335.791016 0)"/>
     <use xlink:href="#DejaVuSerif-Bold-69" transform="translate(422.509766 0)"/>
     <use xlink:href="#DejaVuSerif-Bold-73" transform="translate(460.498047 0)"/>
     <use xlink:href="#DejaVuSerif-Bold-74" transform="translate(516.796875 0)"/>
     <use xlink:href="#DejaVuSerif-Bold-72" transform="translate(562.988281 0)"/>
     <use xlink:href="#DejaVuSerif-Bold-69" transform="translate(615.673828 0)"/>
     <use xlink:href="#DejaVuSerif-Bold-62" transform="translate(653.662109 0)"/>
     <use xlink:href="#DejaVuSerif-Bold-75" transform="translate(723.583984 0)"/>
     <use xlink:href="#DejaVuSerif-Bold-74" transform="translate(796.289062 0)"/>
     <use xlink:href="#DejaVuSerif-Bold-69" transform="translate(842.480469 0)"/>
     <use xlink:href="#DejaVuSerif-Bold-6f" transform="translate(880.46875 0)"/>
     <use xlink:href="#DejaVuSerif-Bold-6e" transform="translate(947.167969 0)"/>
     <use xlink:href="#DejaVuSerif-Bold-20" transform="translate(1019.873047 0)"/>
     <use xlink:href="#DejaVuSerif-Bold-75" transform="translate(1054.6875 0)"/>
     <use xlink:href="#DejaVuSerif-Bold-6e" transform="translate(1127.392578 0)"/>
     <use xlink:href="#DejaVuSerif-Bold-64" transform="translate(1200.097656 0)"/>
     <use xlink:href="#DejaVuSerif-Bold-65" transform="translate(1270.019531 0)"/>
     <use xlink:href="#DejaVuSerif-Bold-72" transform="translate(1333.642578 0)"/>
     <use xlink:href="#DejaVuSerif-Bold-20" transform="translate(1386.328125 0)"/>
     <use xlink:href="#DejaVuSerif-Bold-42" transform="translate(1421.142578 0)"/>
     <use xlink:href="#DejaVuSerif-Bold-69" transform="translate(1505.664062 0)"/>
     <use xlink:href="#DejaVuSerif-Bold-61" transform="translate(1543.652344 0)"/>
     <use xlink:href="#DejaVuSerif-Bold-73" transform="translate(1608.447266 0)"/>
     <use xlink:href="#DejaVuSerif-Bold-20" transform="translate(1664.746094 0)"/>
     <use xlink:href="#DejaVuSerif-Bold-56" transform="translate(1699.560547 0)"/>
     <use xlink:href="#DejaVuSerif-Bold-61" transform="translate(1768.023438 0)"/>
     <use xlink:href="#DejaVuSerif-Bold-72" transform="translate(1832.818359 0)"/>
     <use xlink:href="#DejaVuSerif-Bold-69" transform="translate(1885.503906 0)"/>
     <use xlink:href="#DejaVuSerif-Bold-61" transform="translate(1923.492188 0)"/>
     <use xlink:href="#DejaVuSerif-Bold-74" transform="translate(1988.287109 0)"/>
     <use xlink:href="#DejaVuSerif-Bold-69" transform="translate(2034.478516 0)"/>
     <use xlink:href="#DejaVuSerif-Bold-6f" transform="translate(2072.466797 0)"/>
     <use xlink:href="#DejaVuSerif-Bold-6e" transform="translate(2139.166016 0)"/>
     <use xlink:href="#DejaVuSerif-Bold-20" transform="translate(2211.871094 0)"/>
     <use xlink:href="#DejaVuSerif-Bold-2d" transform="translate(2246.685547 0)"/>
     <use xlink:href="#DejaVuSerif-Bold-20" transform="translate(2288.189453 0)"/>
     <use xlink:href="#DejaVuSerif-Bold-54" transform="translate(2323.003906 0)"/>
     <use xlink:href="#DejaVuSerif-Bold-61" transform="translate(2387.792969 0)"/>
     <use xlink:href="#DejaVuSerif-Bold-72" transform="translate(2452.587891 0)"/>
     <use xlink:href="#DejaVuSerif-Bold-67" transform="translate(2505.273438 0)"/>
     <use xlink:href="#DejaVuSerif-Bold-65" transform="translate(2575.195312 0)"/>
     <use xlink:href="#DejaVuSerif-Bold-74" transform="translate(2638.818359 0)"/>
     <use xlink:href="#DejaVuSerif-Bold-3a" transform="translate(2685.009766 0)"/>
     <use xlink:href="#DejaVuSerif-Bold-20" transform="translate(2721.923828 0)"/>
     <use xlink:href="#DejaVuSerif-Bold-53" transform="translate(2756.738281 0)"/>
     <use xlink:href="#DejaVuSerif-Bold-71" transform="translate(2828.955078 0)"/>
     <use xlink:href="#DejaVuSerif-Bold-75" transform="translate(2898.876953 0)"/>
     <use xlink:href="#DejaVuSerif-Bold-69" transform="translate(2971.582031 0)"/>
     <use xlink:href="#DejaVuSerif-Bold-6e" transform="translate(3009.570312 0)"/>
     <use xlink:href="#DejaVuSerif-Bold-74" transform="translate(3082.275391 0)"/>
    </g>
   </g>
   <g id="legend_1">
    <g id="patch_7">
     <path d="M 568.403175 153.517313 
L 689.290425 153.517313 
Q 691.930425 153.517313 691.930425 150.877313 
L 691.930425 34.5975 
Q 691.930425 31.9575 689.290425 31.9575 
L 568.403175 31.9575 
Q 565.763175 31.9575 565.763175 34.5975 
L 565.763175 150.877313 
Q 565.763175 153.517313 568.403175 153.517313 
z
" style="fill: #ffffff; opacity: 0.8; stroke: #cccccc; stroke-width: 0.8; stroke-linejoin: miter"/>
    </g>
    <g id="text_15">
     <!-- Misclassified as -->
     <g style="fill: #262626" transform="translate(571.043175 48.17925) scale(0.144 -0.144)">
      <defs>
       <path id="DejaVuSerif-4d" d="M 353 0 
L 353 331 
L 947 331 
L 947 4331 
L 319 4331 
L 319 4666 
L 1678 4666 
L 3316 1344 
L 4953 4666 
L 6228 4666 
L 6228 4331 
L 5606 4331 
L 5606 331 
L 6203 331 
L 6203 0 
L 4378 0 
L 4378 331 
L 4972 331 
L 4972 3938 
L 3372 684 
L 2931 684 
L 1331 3938 
L 1331 331 
L 1925 331 
L 1925 0 
L 353 0 
z
" transform="scale(0.015625)"/>
       <path id="DejaVuSerif-66" d="M 2753 4078 
L 2450 4078 
Q 2447 4313 2317 4434 
Q 2188 4556 1941 4556 
Q 1619 4556 1487 4379 
Q 1356 4203 1356 3750 
L 1356 3322 
L 2284 3322 
L 2284 2988 
L 1356 2988 
L 1356 331 
L 2094 331 
L 2094 0 
L 231 0 
L 231 331 
L 781 331 
L 781 2988 
L 231 2988 
L 231 3322 
L 781 3322 
L 781 3738 
Q 781 4294 1070 4578 
Q 1359 4863 1919 4863 
Q 2128 4863 2337 4825 
Q 2547 4788 2753 4709 
L 2753 4078 
z
" transform="scale(0.015625)"/>
       <path id="DejaVuSerif-64" d="M 3359 331 
L 3909 331 
L 3909 0 
L 2784 0 
L 2784 519 
Q 2616 206 2355 57 
Q 2094 -91 1709 -91 
Q 1097 -91 708 395 
Q 319 881 319 1663 
Q 319 2444 706 2928 
Q 1094 3413 1709 3413 
Q 2094 3413 2355 3264 
Q 2616 3116 2784 2803 
L 2784 4531 
L 2241 4531 
L 2241 4863 
L 3359 4863 
L 3359 331 
z
M 2784 1497 
L 2784 1825 
Q 2784 2422 2554 2737 
Q 2325 3053 1888 3053 
Q 1444 3053 1217 2703 
Q 991 2353 991 1663 
Q 991 975 1217 622 
Q 1444 269 1888 269 
Q 2325 269 2554 583 
Q 2784 897 2784 1497 
z
" transform="scale(0.015625)"/>
      </defs>
      <use xlink:href="#DejaVuSerif-4d"/>
      <use xlink:href="#DejaVuSerif-69" transform="translate(102.392578 0)"/>
      <use xlink:href="#DejaVuSerif-73" transform="translate(134.375 0)"/>
      <use xlink:href="#DejaVuSerif-63" transform="translate(185.693359 0)"/>
      <use xlink:href="#DejaVuSerif-6c" transform="translate(241.699219 0)"/>
      <use xlink:href="#DejaVuSerif-61" transform="translate(273.681641 0)"/>
      <use xlink:href="#DejaVuSerif-73" transform="translate(333.300781 0)"/>
      <use xlink:href="#DejaVuSerif-73" transform="translate(384.619141 0)"/>
      <use xlink:href="#DejaVuSerif-69" transform="translate(435.9375 0)"/>
      <use xlink:href="#DejaVuSerif-66" transform="translate(467.919922 0)"/>
      <use xlink:href="#DejaVuSerif-69" transform="translate(504.931641 0)"/>
      <use xlink:href="#DejaVuSerif-65" transform="translate(536.914062 0)"/>
      <use xlink:href="#DejaVuSerif-64" transform="translate(596.09375 0)"/>
      <use xlink:href="#DejaVuSerif-20" transform="translate(660.107422 0)"/>
      <use xlink:href="#DejaVuSerif-61" transform="translate(691.894531 0)"/>
      <use xlink:href="#DejaVuSerif-73" transform="translate(751.513672 0)"/>
     </g>
    </g>
    <g id="line2d_17">
     <path d="M 581.6568 63.183937 
L 594.8568 63.183937 
L 608.0568 63.183937 
" style="fill: none; stroke: #f77189; stroke-width: 2; stroke-linecap: round"/>
     <g>
      <use xlink:href="#m7d36aa139a" x="594.8568" y="63.183937" style="fill: #f77189; stroke: #f77189"/>
     </g>
    </g>
    <g id="text_16">
     <!-- Neutral -->
     <g style="fill: #262626" transform="translate(618.6168 67.803937) scale(0.132 -0.132)">
      <defs>
       <path id="DejaVuSerif-75" d="M 2266 3322 
L 3341 3322 
L 3341 331 
L 3884 331 
L 3884 0 
L 2766 0 
L 2766 588 
Q 2606 256 2353 82 
Q 2100 -91 1766 -91 
Q 1213 -91 952 223 
Q 691 538 691 1209 
L 691 2988 
L 172 2988 
L 172 3322 
L 1269 3322 
L 1269 1388 
Q 1269 781 1417 556 
Q 1566 331 1947 331 
Q 2347 331 2556 625 
Q 2766 919 2766 1478 
L 2766 2988 
L 2266 2988 
L 2266 3322 
z
" transform="scale(0.015625)"/>
      </defs>
      <use xlink:href="#DejaVuSerif-4e"/>
      <use xlink:href="#DejaVuSerif-65" transform="translate(87.5 0)"/>
      <use xlink:href="#DejaVuSerif-75" transform="translate(146.679688 0)"/>
      <use xlink:href="#DejaVuSerif-74" transform="translate(211.083984 0)"/>
      <use xlink:href="#DejaVuSerif-72" transform="translate(251.269531 0)"/>
      <use xlink:href="#DejaVuSerif-61" transform="translate(299.072266 0)"/>
      <use xlink:href="#DejaVuSerif-6c" transform="translate(358.691406 0)"/>
     </g>
    </g>
    <g id="line2d_18">
     <path d="M 581.6568 82.559062 
L 594.8568 82.559062 
L 608.0568 82.559062 
" style="fill: none; stroke: #bb9832; stroke-width: 2; stroke-linecap: round"/>
     <g>
      <use xlink:href="#m2b5a4237cc" x="594.8568" y="82.559062" style="fill: #bb9832; stroke: #bb9832"/>
     </g>
    </g>
    <g id="text_17">
     <!-- Smile -->
     <g style="fill: #262626" transform="translate(618.6168 87.179062) scale(0.132 -0.132)">
      <defs>
       <path id="DejaVuSerif-53" d="M 594 225 
L 594 1288 
L 953 1284 
Q 969 753 1261 498 
Q 1553 244 2150 244 
Q 2706 244 2998 464 
Q 3291 684 3291 1106 
Q 3291 1444 3114 1625 
Q 2938 1806 2369 1978 
L 1753 2163 
Q 1084 2366 811 2669 
Q 538 2972 538 3500 
Q 538 4094 959 4422 
Q 1381 4750 2144 4750 
Q 2469 4750 2856 4679 
Q 3244 4609 3681 4475 
L 3681 3481 
L 3328 3481 
Q 3275 3975 2998 4195 
Q 2722 4416 2156 4416 
Q 1663 4416 1405 4214 
Q 1147 4013 1147 3628 
Q 1147 3294 1340 3103 
Q 1534 2913 2163 2725 
L 2741 2553 
Q 3375 2363 3645 2067 
Q 3916 1772 3916 1275 
Q 3916 597 3481 253 
Q 3047 -91 2188 -91 
Q 1803 -91 1404 -12 
Q 1006 66 594 225 
z
" transform="scale(0.015625)"/>
       <path id="DejaVuSerif-6d" d="M 3316 2675 
Q 3481 3041 3739 3227 
Q 3997 3413 4341 3413 
Q 4863 3413 5119 3089 
Q 5375 2766 5375 2113 
L 5375 331 
L 5894 331 
L 5894 0 
L 4300 0 
L 4300 331 
L 4800 331 
L 4800 2047 
Q 4800 2556 4650 2772 
Q 4500 2988 4153 2988 
Q 3769 2988 3567 2697 
Q 3366 2406 3366 1850 
L 3366 331 
L 3866 331 
L 3866 0 
L 2291 0 
L 2291 331 
L 2791 331 
L 2791 2069 
Q 2791 2566 2641 2777 
Q 2491 2988 2144 2988 
Q 1759 2988 1557 2697 
Q 1356 2406 1356 1850 
L 1356 331 
L 1856 331 
L 1856 0 
L 263 0 
L 263 331 
L 781 331 
L 781 2994 
L 231 2994 
L 231 3322 
L 1356 3322 
L 1356 2731 
Q 1516 3063 1762 3238 
Q 2009 3413 2322 3413 
Q 2709 3413 2968 3220 
Q 3228 3028 3316 2675 
z
" transform="scale(0.015625)"/>
      </defs>
      <use xlink:href="#DejaVuSerif-53"/>
      <use xlink:href="#DejaVuSerif-6d" transform="translate(68.505859 0)"/>
      <use xlink:href="#DejaVuSerif-69" transform="translate(163.330078 0)"/>
      <use xlink:href="#DejaVuSerif-6c" transform="translate(195.3125 0)"/>
      <use xlink:href="#DejaVuSerif-65" transform="translate(227.294922 0)"/>
     </g>
    </g>
    <g id="line2d_19">
     <path d="M 581.6568 101.934187 
L 594.8568 101.934187 
L 608.0568 101.934187 
" style="fill: none; stroke: #50b131; stroke-width: 2; stroke-linecap: round"/>
     <g>
      <use xlink:href="#mfd2e8a0539" x="594.8568" y="101.934187" style="fill: #50b131; stroke: #50b131"/>
     </g>
    </g>
    <g id="text_18">
     <!-- Surprise -->
     <g style="fill: #262626" transform="translate(618.6168 106.554187) scale(0.132 -0.132)">
      <use xlink:href="#DejaVuSerif-53"/>
      <use xlink:href="#DejaVuSerif-75" transform="translate(68.505859 0)"/>
      <use xlink:href="#DejaVuSerif-72" transform="translate(132.910156 0)"/>
      <use xlink:href="#DejaVuSerif-70" transform="translate(180.712891 0)"/>
      <use xlink:href="#DejaVuSerif-72" transform="translate(244.726562 0)"/>
      <use xlink:href="#DejaVuSerif-69" transform="translate(292.529297 0)"/>
      <use xlink:href="#DejaVuSerif-73" transform="translate(324.511719 0)"/>
      <use xlink:href="#DejaVuSerif-65" transform="translate(375.830078 0)"/>
     </g>
    </g>
    <g id="line2d_20">
     <path d="M 581.6568 121.309312 
L 594.8568 121.309312 
L 608.0568 121.309312 
" style="fill: none; stroke: #3ba3ec; stroke-width: 2; stroke-linecap: round"/>
     <g>
      <use xlink:href="#m966b3a5c4f" x="594.8568" y="121.309312" style="fill: #3ba3ec; stroke: #3ba3ec"/>
     </g>
    </g>
    <g id="text_19">
     <!-- Disgust -->
     <g style="fill: #262626" transform="translate(618.6168 125.929312) scale(0.132 -0.132)">
      <defs>
       <path id="DejaVuSerif-44" d="M 1581 331 
L 2163 331 
Q 3072 331 3558 850 
Q 4044 1369 4044 2338 
Q 4044 3306 3559 3818 
Q 3075 4331 2163 4331 
L 1581 4331 
L 1581 331 
z
M 353 0 
L 353 331 
L 947 331 
L 947 4331 
L 353 4331 
L 353 4666 
L 2209 4666 
Q 3416 4666 4089 4050 
Q 4763 3434 4763 2338 
Q 4763 1238 4088 619 
Q 3413 0 2209 0 
L 353 0 
z
" transform="scale(0.015625)"/>
      </defs>
      <use xlink:href="#DejaVuSerif-44"/>
      <use xlink:href="#DejaVuSerif-69" transform="translate(80.175781 0)"/>
      <use xlink:href="#DejaVuSerif-73" transform="translate(112.158203 0)"/>
      <use xlink:href="#DejaVuSerif-67" transform="translate(163.476562 0)"/>
      <use xlink:href="#DejaVuSerif-75" transform="translate(227.490234 0)"/>
      <use xlink:href="#DejaVuSerif-73" transform="translate(291.894531 0)"/>
      <use xlink:href="#DejaVuSerif-74" transform="translate(343.212891 0)"/>
     </g>
    </g>
    <g id="line2d_21">
     <path d="M 581.6568 140.872125 
L 594.8568 140.872125 
L 608.0568 140.872125 
" style="fill: none; stroke: #e866f4; stroke-width: 2; stroke-linecap: round"/>
     <g>
      <use xlink:href="#m0b2767440e" x="594.8568" y="140.872125" style="fill: #e866f4; stroke: #e866f4"/>
     </g>
    </g>
    <g id="text_20">
     <!-- Scream -->
     <g style="fill: #262626" transform="translate(618.6168 145.492125) scale(0.132 -0.132)">
      <use xlink:href="#DejaVuSerif-53"/>
      <use xlink:href="#DejaVuSerif-63" transform="translate(68.505859 0)"/>
      <use xlink:href="#DejaVuSerif-72" transform="translate(124.511719 0)"/>
      <use xlink:href="#DejaVuSerif-65" transform="translate(172.314453 0)"/>
      <use xlink:href="#DejaVuSerif-61" transform="translate(231.494141 0)"/>
      <use xlink:href="#DejaVuSerif-6d" transform="translate(291.113281 0)"/>
     </g>
    </g>
   </g>
  </g>
 </g>
 <defs>
  <clipPath id="pb903784519">
   <rect x="63.031875" y="25.3575" width="472.506" height="341.241"/>
  </clipPath>
 </defs>
</svg>
